<svg width="86" height="340" viewBox="0 0 86 340" fill="none" xmlns="http://www.w3.org/2000/svg">
<path d="M22.212 122.808L22.752 126.732C21.492 127.092 20.196 127.452 18.9 127.776V136.38C18.9 138.468 18.504 139.476 17.28 140.16C16.092 140.808 14.364 140.916 11.844 140.916C11.664 139.836 11.124 138.144 10.62 137.028C12.024 137.064 13.5 137.064 13.968 137.064C14.508 137.064 14.652 136.884 14.652 136.344V128.928L11.16 129.792L10.044 125.724C11.376 125.472 12.924 125.112 14.652 124.68V118.308H10.512V114.348H14.652V107.508H18.9V114.348H22.428V118.308H18.9V123.636L22.212 122.808ZM37.26 124.752H28.512C29.52 127.128 30.96 129.288 32.76 131.124C34.632 129.324 36.18 127.2 37.26 124.752ZM39.96 120.72L42.696 121.872C41.328 126.876 39.024 130.8 36 133.824C38.34 135.48 41.112 136.668 44.316 137.46C43.416 138.324 42.192 140.052 41.58 141.168C38.088 140.124 35.1 138.648 32.616 136.632C29.808 138.576 26.64 140.016 23.148 141.06C22.68 139.908 21.636 138.108 20.844 137.172C24.012 136.416 26.928 135.264 29.448 133.644C27.324 131.232 25.632 128.388 24.336 125.076L25.416 124.752H23.544V120.9H30.636V116.58H22.896V112.62H30.636V107.472H34.884V112.62H42.948V116.58H34.884V120.9H39.204L39.96 120.72ZM40.032 154.908L36.72 157.824C35.424 156.384 32.76 154.044 30.78 152.46L33.948 149.832C35.856 151.308 38.664 153.468 40.032 154.908ZM42.588 162.54H31.248C34.38 167.436 39.456 172.476 44.136 175.392C43.02 176.292 41.472 178.056 40.68 179.244C36.72 176.292 32.652 171.684 29.448 166.824V183.132H24.732V168.372C21.564 173.016 17.532 176.976 13.104 179.532C12.348 178.416 10.908 176.652 9.864 175.752C15.372 173.016 20.556 167.904 23.508 162.54H11.268V158.328H24.732V149.544H29.448V158.328H42.588V162.54ZM16.128 198.888V203.1H11.844V194.892H25.02C24.66 194.028 24.228 193.128 23.796 192.408L28.08 191.076C28.8 192.228 29.592 193.632 30.132 194.892H42.264V203.1H37.764V198.888H16.128ZM25.236 203.352L22.536 206.412C21.528 205.188 19.26 203.496 17.424 202.416L19.908 199.644C21.744 200.544 24.12 202.092 25.236 203.352ZM13.752 207.78L16.2 204.9C18.072 205.8 20.484 207.276 21.636 208.464L19.08 211.632C18 210.444 15.66 208.824 13.752 207.78ZM42.696 215.7H28.368C26.208 220.02 22.104 223.152 14.184 225.06C13.824 223.98 12.744 222.324 11.808 221.388C17.64 220.128 21.096 218.256 23.148 215.7H11.52V212.1H25.056C26.136 208.968 26.244 205.08 26.388 200.436H30.924C30.78 204.864 30.564 208.752 29.664 212.1H42.696V215.7ZM28.08 219.552L30.06 216.42C34.74 217.716 39.816 219.84 42.732 221.532L40.104 224.952C37.368 223.08 32.652 220.956 28.08 219.552ZM27.36 240.996H41.94C41.94 240.996 41.904 242.472 41.832 243.048C41.112 257.376 40.392 262.776 38.808 264.648C37.728 266.052 36.684 266.448 35.136 266.664C33.804 266.844 31.572 266.844 29.376 266.736C29.304 265.44 28.728 263.532 27.9 262.308C30.168 262.488 32.292 262.488 33.228 262.488C33.984 262.488 34.416 262.38 34.92 261.912C36 260.796 36.72 256.08 37.296 245.388H27.216C26.64 252.84 24.12 261.588 14.004 267.312C13.32 266.232 11.7 264.612 10.656 263.82C19.584 258.96 21.996 251.688 22.608 245.388H11.772V240.996H22.788V233.58H27.36V240.996Z" fill="white"/>
<path d="M58 106.916H70.3145V103.02H72.2383V112.98H70.3145V109.084H58V106.916ZM62.2969 120.168V113.85C61.4831 113.85 60.8646 114.084 60.4414 114.553C60.0117 114.989 59.7969 115.562 59.7969 116.271C59.7969 117.098 60.1257 117.837 60.7832 118.488L59.5234 119.963C58.4167 118.928 57.8698 117.71 57.8828 116.311C57.8828 115.777 57.9609 115.256 58.1172 114.748C58.2018 114.494 58.3158 114.247 58.459 114.006C58.5827 113.752 58.7357 113.514 58.918 113.293C59.2956 112.863 59.8229 112.515 60.5 112.248C61.151 111.955 61.9974 111.809 63.0391 111.809C64.0417 111.809 64.875 111.936 65.5391 112.189C66.2161 112.443 66.75 112.769 67.1406 113.166C67.5378 113.57 67.8242 114.022 68 114.523C68.1758 115.018 68.2637 115.507 68.2637 115.988C68.2507 117.147 67.8698 118.127 67.1211 118.928C66.3594 119.742 65.3112 120.155 63.9766 120.168H62.2969ZM63.9766 113.85V118.127C64.7643 118.101 65.36 117.889 65.7637 117.492C66.1478 117.102 66.3398 116.6 66.3398 115.988C66.3398 115.376 66.1478 114.875 65.7637 114.484C65.36 114.1 64.7643 113.889 63.9766 113.85ZM60.9785 128.264L59.6406 129.768C59.1328 129.325 58.7194 128.804 58.4004 128.205C58.0684 127.606 57.8958 126.913 57.8828 126.125C57.8828 124.927 58.2897 123.876 59.1035 122.971C59.9173 122.033 61.2357 121.551 63.0586 121.525C64.901 121.551 66.2357 122.033 67.0625 122.971C67.8763 123.876 68.2767 124.927 68.2637 126.125C68.2507 126.913 68.0879 127.606 67.7754 128.205C67.4564 128.804 67.0299 129.325 66.4961 129.768L65.1582 128.264C65.8418 127.749 66.1966 127.062 66.2227 126.203C66.2487 124.471 65.194 123.592 63.0586 123.566C60.9362 123.592 59.8913 124.471 59.9238 126.203C59.9368 127.062 60.2884 127.749 60.9785 128.264ZM58 131.193H72.2383V133.234H67.0625V133.273C67.8633 133.944 68.2637 134.823 68.2637 135.91C68.2637 136.75 67.9674 137.518 67.375 138.215C66.776 138.905 65.8971 139.266 64.7383 139.299H58V137.258H64.0352C64.7448 137.258 65.2852 137.069 65.6562 136.691C66.0339 136.32 66.2227 135.842 66.2227 135.256C66.2227 134.67 66.0339 134.188 65.6562 133.811C65.2852 133.426 64.7448 133.234 64.0352 133.234H58V131.193ZM58 141.936H68.1367V143.977H67.0625V144.016C67.8633 144.686 68.2637 145.565 68.2637 146.652C68.2637 147.492 67.9674 148.26 67.375 148.957C66.776 149.647 65.8971 150.008 64.7383 150.041H58V148H64.0352C64.7448 148 65.2852 147.811 65.6562 147.434C66.0339 147.062 66.2227 146.584 66.2227 145.998C66.2227 145.412 66.0339 144.93 65.6562 144.553C65.2852 144.169 64.7448 143.977 64.0352 143.977H58V141.936ZM58 152.736H68.1367V154.777H58V152.736ZM70.1973 152.736H72.2383V154.777H70.1973V152.736ZM60.9785 163.439L59.6406 164.943C59.1328 164.501 58.7194 163.98 58.4004 163.381C58.0684 162.782 57.8958 162.089 57.8828 161.301C57.8828 160.103 58.2897 159.051 59.1035 158.146C59.9173 157.209 61.2357 156.727 63.0586 156.701C64.901 156.727 66.2357 157.209 67.0625 158.146C67.8763 159.051 68.2767 160.103 68.2637 161.301C68.2507 162.089 68.0879 162.782 67.7754 163.381C67.4564 163.98 67.0299 164.501 66.4961 164.943L65.1582 163.439C65.8418 162.925 66.1966 162.238 66.2227 161.379C66.2487 159.647 65.194 158.768 63.0586 158.742C60.9362 158.768 59.8913 159.647 59.9238 161.379C59.9368 162.238 60.2884 162.925 60.9785 163.439ZM58 171.691H58.8984V171.652C58.5534 171.464 58.2995 171.171 58.1367 170.773C57.9674 170.383 57.8828 169.842 57.8828 169.152C57.8958 168.02 58.1953 167.147 58.7812 166.535C59.3542 165.891 60.0866 165.568 60.9785 165.568C61.8314 165.568 62.5378 165.848 63.0977 166.408C63.6706 166.968 63.9635 167.788 63.9766 168.869V171.691H65.041C65.9329 171.704 66.3659 171.011 66.3398 169.611C66.3398 169.104 66.2878 168.703 66.1836 168.41C66.0599 168.104 65.8516 167.863 65.5586 167.688L66.7793 166.086C67.7949 166.861 68.2897 168.003 68.2637 169.514C68.2767 170.79 68.0358 171.809 67.541 172.57C67.0332 173.332 66.1608 173.719 64.9238 173.732H58V171.691ZM61.5645 171.691H62.2969V169.25C62.2708 168.065 61.8639 167.479 61.0762 167.492C60.7311 167.492 60.4382 167.645 60.1973 167.951C59.9303 168.244 59.7969 168.729 59.7969 169.406C59.7839 170.259 59.8848 170.861 60.0996 171.213C60.3145 171.532 60.8027 171.691 61.5645 171.691ZM60.4609 176.369H72.2383V178.41H60.6172C60.1549 178.41 59.9238 178.664 59.9238 179.172V179.875H58V178.967C58 178.225 58.1855 177.613 58.5566 177.131C58.9342 176.623 59.569 176.369 60.4609 176.369ZM61.0957 186.633C60.2298 187.46 59.7969 188.527 59.7969 189.836C59.7969 190.422 59.9108 190.9 60.1387 191.271C60.3665 191.643 60.6855 191.828 61.0957 191.828C61.4603 191.828 61.7142 191.717 61.8574 191.496C62.0072 191.268 62.0885 190.965 62.1016 190.588L62.2578 188.791C62.3359 187.938 62.6224 187.245 63.1172 186.711C63.599 186.164 64.2728 185.884 65.1387 185.871C66.1803 185.884 66.9616 186.252 67.4824 186.975C68.0033 187.678 68.2637 188.57 68.2637 189.65C68.2637 190.119 68.2344 190.539 68.1758 190.91C68.1107 191.281 68.0195 191.63 67.9023 191.955C67.6484 192.58 67.3066 193.14 66.877 193.635L65.4023 192.375C65.6823 191.984 65.9134 191.571 66.0957 191.135C66.2585 190.705 66.3398 190.21 66.3398 189.65C66.3398 189.012 66.2259 188.566 65.998 188.312C65.7702 188.046 65.4772 187.912 65.1191 187.912C64.8913 187.899 64.6927 188 64.5234 188.215C64.3346 188.41 64.2142 188.755 64.1621 189.25L64.0352 190.93C63.957 191.984 63.638 192.746 63.0781 193.215C62.5313 193.651 61.8379 193.869 60.998 193.869C60.015 193.856 59.2565 193.456 58.7227 192.668C58.1758 191.887 57.8958 190.887 57.8828 189.67C57.8828 188.016 58.4883 186.529 59.6992 185.207L61.0957 186.633ZM68.1367 196.057H71.2227V198.098H68.1367V199.582H66.584V198.098H60.6758C60.1615 198.085 59.9108 198.326 59.9238 198.82V199.582H58V198.518C58 197.801 58.2214 197.215 58.6641 196.76C59.0872 196.291 59.6992 196.057 60.5 196.057H66.584V195.041H68.1367V196.057ZM58 201.506H68.1367V203.547H67.0625V203.586C67.8633 204.257 68.2637 205.135 68.2637 206.223C68.2507 207.036 67.9902 207.746 67.4824 208.352L65.7148 206.867C66.0534 206.438 66.2227 205.992 66.2227 205.529C66.2227 205.008 66.0534 204.562 65.7148 204.191C65.3828 203.775 64.8457 203.56 64.1035 203.547H58V201.506ZM62.2969 216.789V210.471C61.4831 210.471 60.8646 210.705 60.4414 211.174C60.0117 211.61 59.7969 212.183 59.7969 212.893C59.7969 213.719 60.1257 214.458 60.7832 215.109L59.5234 216.584C58.4167 215.549 57.8698 214.331 57.8828 212.932C57.8828 212.398 57.9609 211.877 58.1172 211.369C58.2018 211.115 58.3158 210.868 58.459 210.627C58.5827 210.373 58.7357 210.135 58.918 209.914C59.2956 209.484 59.8229 209.136 60.5 208.869C61.151 208.576 61.9974 208.43 63.0391 208.43C64.0417 208.43 64.875 208.557 65.5391 208.811C66.2161 209.064 66.75 209.39 67.1406 209.787C67.5378 210.191 67.8242 210.643 68 211.145C68.1758 211.639 68.2637 212.128 68.2637 212.609C68.2507 213.768 67.8698 214.748 67.1211 215.549C66.3594 216.363 65.3112 216.776 63.9766 216.789H62.2969ZM63.9766 210.471V214.748C64.7643 214.722 65.36 214.51 65.7637 214.113C66.1478 213.723 66.3398 213.221 66.3398 212.609C66.3398 211.997 66.1478 211.496 65.7637 211.105C65.36 210.721 64.7643 210.51 63.9766 210.471ZM58 218.928H68.1367V220.969H67.0625V221.008C67.8633 221.678 68.2637 222.557 68.2637 223.645C68.2637 224.484 67.9674 225.253 67.375 225.949C66.776 226.639 65.8971 227.001 64.7383 227.033H58V224.992H64.0352C64.7448 224.992 65.2852 224.803 65.6562 224.426C66.0339 224.055 66.2227 223.576 66.2227 222.99C66.2227 222.404 66.0339 221.923 65.6562 221.545C65.2852 221.161 64.7448 220.969 64.0352 220.969H58V218.928ZM59.0645 235.373C58.3027 234.702 57.9089 233.83 57.8828 232.756C57.8958 232.098 58.0358 231.551 58.3027 231.115C58.5566 230.66 58.8301 230.311 59.123 230.07C59.4551 229.803 59.862 229.611 60.3438 229.494C60.819 229.37 61.724 229.309 63.0586 229.309C64.4193 229.309 65.3405 229.37 65.8223 229.494C66.2975 229.611 66.6979 229.803 67.0234 230.07C67.3424 230.311 67.6289 230.66 67.8828 231.115C68.1237 231.551 68.2507 232.098 68.2637 232.756C68.2637 233.765 67.8633 234.637 67.0625 235.373H68.1367V237.414H58.2441C56.7207 237.388 55.6009 236.949 54.8848 236.096C54.1491 235.236 53.7813 234.208 53.7813 233.01C53.8073 231.636 54.3737 230.464 55.4805 229.494L56.7402 231.076C56.4993 231.337 56.2943 231.636 56.125 231.975C55.9362 232.32 55.8353 232.678 55.8223 233.049C55.8223 233.745 56.0143 234.305 56.3984 234.729C56.7891 235.145 57.3294 235.36 58.0195 235.373H59.0645ZM63.0586 231.35C62.2839 231.35 61.75 231.376 61.457 231.428C61.151 231.473 60.8971 231.581 60.6953 231.75C60.513 231.887 60.347 232.095 60.1973 232.375C60.015 232.642 59.9238 232.974 59.9238 233.371C59.9238 233.768 60.015 234.1 60.1973 234.367C60.347 234.634 60.513 234.836 60.6953 234.973C60.8971 235.142 61.151 235.256 61.457 235.314C61.75 235.354 62.2839 235.373 63.0586 235.373C63.8464 235.373 64.3932 235.354 64.6992 235.314C65.0052 235.256 65.2526 235.142 65.4414 234.973C65.6237 234.836 65.8027 234.634 65.9785 234.367C66.1283 234.1 66.2096 233.768 66.2227 233.371C66.2096 232.974 66.1283 232.642 65.9785 232.375C65.8027 232.095 65.6237 231.887 65.4414 231.75C65.2526 231.581 65.0052 231.473 64.6992 231.428C64.3932 231.376 63.8464 231.35 63.0586 231.35ZM68.1367 240.178H71.2227V242.219H68.1367V243.703H66.584V242.219H60.6758C60.1615 242.206 59.9108 242.447 59.9238 242.941V243.703H58V242.639C58 241.923 58.2214 241.337 58.6641 240.881C59.0872 240.412 59.6992 240.178 60.5 240.178H66.584V239.162H68.1367V240.178ZM58 245.627H72.2383V247.668H67.0625V247.707C67.8633 248.378 68.2637 249.257 68.2637 250.344C68.2637 251.184 67.9674 251.952 67.375 252.648C66.776 253.339 65.8971 253.7 64.7383 253.732H58V251.691H64.0352C64.7448 251.691 65.2852 251.503 65.6563 251.125C66.0339 250.754 66.2227 250.275 66.2227 249.689C66.2227 249.104 66.0339 248.622 65.6563 248.244C65.2852 247.86 64.7448 247.668 64.0352 247.668H58V245.627Z" fill="#E6E6E6"/>
<path d="M58.9458 23.8637C65.6568 28.3341 70.1378 35.7955 70.8776 44.747C73.1182 44.747 75.3481 45.4974 77.5886 46.2372C76.8383 34.3054 70.8776 23.8478 61.1758 17.8766C60.436 19.3932 60.436 21.6337 58.9458 23.8637ZM54.4648 73.1076C50.7341 74.5978 47.0034 76.0879 42.5329 76.0879C38.0625 76.0879 34.3212 75.3376 30.6011 73.1076C29.1109 75.3481 27.6208 76.8383 26.1306 78.3284C31.3515 81.3087 36.5723 82.7989 42.5435 82.7989C48.5147 82.7989 54.4753 81.3087 58.9564 78.3284C57.4451 76.8383 55.9549 75.3376 54.4648 73.1076ZM14.1724 44.747C14.9227 35.7955 19.3932 28.3341 26.1042 23.8637L23.8637 17.1527C14.1618 23.1239 8.20116 34.3053 7.45079 46.253C9.70188 45.4974 11.9424 44.747 14.1724 44.747ZM14.9227 48.4777C6.70043 48.5041 0.0264212 55.1781 0 63.4057C0.0264212 71.6333 6.68458 78.3073 14.9227 78.3284C23.1503 78.302 29.8243 71.6439 29.8454 63.4057C29.8243 55.1781 23.1503 48.5041 14.9227 48.4777ZM42.5329 0C34.3053 0.0264212 27.6313 6.68458 27.6102 14.9227C27.6366 23.1503 34.2948 29.8243 42.5329 29.8454C50.7605 29.819 57.4345 23.145 57.4557 14.9227C57.4187 6.68458 50.7605 0.0264212 42.5329 0ZM70.1273 48.4936C61.8997 48.52 55.2257 55.194 55.2046 63.4163C55.231 71.6439 61.8891 78.3179 70.1273 78.339C78.3549 78.3126 85.0289 71.6544 85.05 63.4163C85.0289 55.1781 78.3654 48.52 70.1273 48.4936Z" fill="url(#paint0_linear_243_4)"/>
<defs>
<linearGradient id="paint0_linear_243_4" x1="42.525" y1="0" x2="42.525" y2="82.7989" gradientUnits="userSpaceOnUse">
<stop stop-color="#45E02A"/>
<stop offset="1" stop-color="white"/>
</linearGradient>
</defs>
</svg>
