<svg width="42" height="42" viewBox="0 0 42 42" fill="none" xmlns="http://www.w3.org/2000/svg">
<g clip-path="url(#clip0_1_277)">
<path d="M20.9994 10.8936C15.4193 10.8936 10.8945 15.4183 10.8945 20.9985C10.8945 26.5786 15.4193 31.1034 20.9994 31.1034C26.5796 31.1034 31.1043 26.5786 31.1043 20.9985C31.1043 15.4183 26.5822 10.8936 20.9994 10.8936ZM25.8144 25.8135C23.155 28.4729 18.8465 28.4729 16.1871 25.8135C13.5276 23.154 13.5276 18.8456 16.1871 16.1861C18.8465 13.5266 23.155 13.5266 25.8144 16.1861C27.0914 17.4631 27.809 19.1938 27.809 21.0011C27.8117 22.8057 27.094 24.5391 25.8144 25.8135Z" fill="#56BC44"/>
<path d="M38.4883 20.9987C38.4883 20.6319 38.4778 20.2599 38.454 19.8879L42 16.685L41.7573 15.722C41.2507 13.73 40.4592 11.8198 39.4065 10.0548L38.8973 9.19731L34.1271 9.44004C33.639 8.88335 33.114 8.36095 32.5573 7.87022L32.8027 3.10007L31.9505 2.59087C30.1854 1.53816 28.2753 0.746655 26.2833 0.24009L25.315 0L22.1121 3.54859C21.3733 3.5011 20.632 3.5011 19.8932 3.54859L16.6902 0L15.7272 0.245367C13.7353 0.751932 11.8251 1.54344 10.0601 2.59614L9.19995 3.10535L9.44268 7.87549C8.88599 8.36623 8.36359 8.88862 7.87286 9.44532L3.10271 9.19995L2.59614 10.0521C1.5408 11.8198 0.749293 13.7274 0.245367 15.722L0 16.685L3.54859 19.8879C3.52484 20.2599 3.51429 20.6293 3.51429 20.9987C3.51429 21.368 3.52484 21.7374 3.54859 22.1094L0 25.3098L0.245367 26.2728C0.751932 28.2647 1.54344 30.1749 2.59614 31.9399L3.10535 32.8L7.87549 32.5573C8.36359 33.114 8.88862 33.6364 9.44532 34.1271L9.19995 38.8973L10.0521 39.4065C11.8172 40.4592 13.7274 41.2507 15.7193 41.7573L16.6823 42L19.8853 38.454C20.624 38.5015 21.3654 38.5015 22.1042 38.454L25.3071 42L26.2701 41.7573C28.2621 41.2507 30.1722 40.4592 31.9373 39.4065L32.7974 38.8973L32.5547 34.1271C33.1114 33.6364 33.6338 33.114 34.1245 32.5573L38.8947 32.8027L39.4039 31.9505C40.4566 30.1854 41.2481 28.2753 41.7546 26.2833L41.9974 25.3203L38.4514 22.1173C38.4752 21.7374 38.4883 21.368 38.4883 20.9987ZM35.1007 19.3998C35.2221 20.4631 35.2221 21.5369 35.1007 22.6002L35.0057 23.4418L38.2931 26.41C37.9686 27.4442 37.5544 28.4441 37.0504 29.4045L32.6286 29.1776L32.1009 29.8398C31.4334 30.6762 30.6762 31.4334 29.8398 32.1009L29.1776 32.6286L29.4045 37.0504C28.4468 37.5544 27.4442 37.9686 26.41 38.2931L23.4418 35.0057L22.6002 35.1007C21.5369 35.2221 20.4631 35.2221 19.3998 35.1007L18.5582 35.0057L15.59 38.2905C14.5558 37.966 13.5559 37.5517 12.5955 37.0478L12.8224 32.6259L12.1602 32.0982C11.3238 31.4307 10.5666 30.6735 9.89911 29.8372L9.37144 29.1749L4.94956 29.4018C4.44827 28.4441 4.03141 27.4415 3.70953 26.41L6.99692 23.4418L6.90194 22.6002C6.78058 21.5369 6.78058 20.4631 6.90194 19.3998L6.99692 18.5582L3.70689 15.59C4.03141 14.5558 4.44563 13.5559 4.94956 12.5955L9.37144 12.8224L9.89911 12.1602C10.5666 11.3238 11.3238 10.5666 12.1602 9.89911L12.8224 9.37144L12.5955 4.94956C13.5532 4.44563 14.5558 4.03141 15.59 3.70689L18.5582 6.99165L19.3998 6.89666C20.4631 6.7753 21.5369 6.7753 22.6002 6.89666L23.4418 6.99165L26.41 3.70689C27.4442 4.02877 28.4441 4.44563 29.4045 4.94956L29.1776 9.37144L29.8398 9.89911C30.6762 10.5666 31.4334 11.3238 32.1009 12.1602L32.6286 12.8224L37.0504 12.5955C37.5544 13.5532 37.9686 14.5558 38.2931 15.59L35.0057 18.5582L35.1007 19.3998Z" fill="#56BC44"/>
</g>
<defs>
<clipPath id="clip0_1_277">
<rect width="42" height="42" fill="white"/>
</clipPath>
</defs>
</svg>
